HIERARCHY
ROOT Root
{
  OFFSET 0.0 0.0 0.0
  CHANNELS 6 Xposition Yposition Zposition Zrotation Yrotation Xrotation
  JOINT Hips
  {
    OFFSET 0.0 100.0 0.0
    CHANNELS 6 Xposition Yposition Zposition Zrotation Yrotation Xrotation
    JOINT Spine1
    {
      OFFSET 5.003913 -0.037094 -0.013727
      CHANNELS 3 Zrotation Yrotation Xrotation
      JOINT Spine2
      {
        OFFSET 7.125363 -1e-06 0.0
        CHANNELS 3 Zrotation Yrotation Xrotation
        JOINT Chest
        {
          OFFSET 7.594027 1e-06 0.0
          CHANNELS 3 Zrotation Yrotation Xrotation
          JOINT Neck1
          {
            OFFSET 26.313086 -0.460272 -0.181672
            CHANNELS 3 Zrotation Yrotation Xrotation
            JOINT Neck2
            {
              OFFSET 8.045911 0.0 0.0
              CHANNELS 3 Zrotation Yrotation Xrotation
              JOINT Head
              {
                OFFSET 6.432774 0.0 0.0
                CHANNELS 3 Zrotation Yrotation Xrotation
                JOINT HeadEnd
                {
                  OFFSET 16.169773 0.06451 0.00362
                  CHANNELS 3 Zrotation Yrotation Xrotation
                }
                JOINT Jaw
                {
                  OFFSET 0.108741 3.12938 0.002639
                  CHANNELS 3 Zrotation Yrotation Xrotation
                }
                JOINT LeftEye
                {
                  OFFSET 4.45173 8.166359 3.206392
                  CHANNELS 3 Zrotation Yrotation Xrotation
                }
                JOINT RightEye
                {
                  OFFSET 4.436895 8.135758 -3.222429
                  CHANNELS 3 Zrotation Yrotation Xrotation
                }
              }
            }
          }
          JOINT LeftShoulder
          {
            OFFSET 23.218927 5.195579 1.621656
            CHANNELS 3 Zrotation Yrotation Xrotation
            JOINT LeftArm
            {
              OFFSET 15.902118 2e-06 -2e-06
              CHANNELS 3 Zrotation Yrotation Xrotation
              JOINT LeftForeArm
              {
                OFFSET 28.739307 0.0 -1e-06
                CHANNELS 3 Zrotation Yrotation Xrotation
                JOINT LeftHand
                {
                  OFFSET 27.093981 -4e-06 0.0
                  CHANNELS 3 Zrotation Yrotation Xrotation
                  JOINT LeftHandThumb1
                  {
                    OFFSET 2.276781 3.380274 0.83384
                    CHANNELS 3 Zrotation Yrotation Xrotation
                    JOINT LeftHandThumb2
                    {
                      OFFSET 4.705309 -1e-06 -1e-06
                      CHANNELS 3 Zrotation Yrotation Xrotation
                      JOINT LeftHandThumb3
                      {
                        OFFSET 2.798515 0.0 3e-06
                        CHANNELS 3 Zrotation Yrotation Xrotation
                        JOINT LeftHandThumbEnd
                        {
                          OFFSET 3.180793 4e-06 -4e-06
                          CHANNELS 3 Zrotation Yrotation Xrotation
                        }
                      }
                    }
                  }
                  JOINT LeftHandIndex1
                  {
                    OFFSET 3.247786 2.352677 0.137192
                    CHANNELS 3 Zrotation Yrotation Xrotation
                    JOINT LeftHandIndex2
                    {
                      OFFSET 6.367095 1e-06 0.0
                      CHANNELS 3 Zrotation Yrotation Xrotation
                      JOINT LeftHandIndex3
                      {
                        OFFSET 3.662364 0.0 0.0
                        CHANNELS 3 Zrotation Yrotation Xrotation
                        JOINT LeftHandIndex4
                        {
                          OFFSET 2.329242 4e-06 -4e-06
                          CHANNELS 3 Zrotation Yrotation Xrotation
                          JOINT LeftHandIndexEnd
                          {
                            OFFSET 2.767823 1e-06 0.0
                            CHANNELS 3 Zrotation Yrotation Xrotation
                          }
                        }
                      }
                    }
                  }
                  JOINT LeftHandMiddle1
                  {
                    OFFSET 3.163612 0.945023 -0.406112
                    CHANNELS 3 Zrotation Yrotation Xrotation
                    JOINT LeftHandMiddle2
                    {
                      OFFSET 6.276789 3e-06 0.0
                      CHANNELS 3 Zrotation Yrotation Xrotation
                      JOINT LeftHandMiddle3
                      {
                        OFFSET 4.35652 -1e-06 4e-06
                        CHANNELS 3 Zrotation Yrotation Xrotation
                        JOINT LeftHandMiddle4
                        {
                          OFFSET 2.996877 0.0 8e-06
                          CHANNELS 3 Zrotation Yrotation Xrotation
                          JOINT LeftHandMiddleEnd
                          {
                            OFFSET 2.323256 3e-06 -4e-06
                            CHANNELS 3 Zrotation Yrotation Xrotation
                          }
                        }
                      }
                    }
                  }
                  JOINT LeftHandRing1
                  {
                    OFFSET 2.882606 -0.309162 0.107445
                    CHANNELS 3 Zrotation Yrotation Xrotation
                    JOINT LeftHandRing2
                    {
                      OFFSET 6.033198 0.0 4e-06
                      CHANNELS 3 Zrotation Yrotation Xrotation
                      JOINT LeftHandRing3
                      {
                        OFFSET 4.350578 3e-06 0.0
                        CHANNELS 3 Zrotation Yrotation Xrotation
                        JOINT LeftHandRing4
                        {
                          OFFSET 2.651321 2e-06 -7e-06
                          CHANNELS 3 Zrotation Yrotation Xrotation
                          JOINT LeftHandRingEnd
                          {
                            OFFSET 1.937663 1e-06 -4e-06
                            CHANNELS 3 Zrotation Yrotation Xrotation
                          }
                        }
                      }
                    }
                  }
                  JOINT LeftHandPinky1
                  {
                    OFFSET 2.865315 -1.525436 0.575687
                    CHANNELS 3 Zrotation Yrotation Xrotation
                    JOINT LeftHandPinky2
                    {
                      OFFSET 5.54936 1e-06 -8e-06
                      CHANNELS 3 Zrotation Yrotation Xrotation
                      JOINT LeftHandPinky3
                      {
                        OFFSET 3.070974 0.0 -4e-06
                        CHANNELS 3 Zrotation Yrotation Xrotation
                        JOINT LeftHandPinky4
                        {
                          OFFSET 1.549672 1e-06 0.0
                          CHANNELS 3 Zrotation Yrotation Xrotation
                          JOINT LeftHandPinkyEnd
                          {
                            OFFSET 1.952123 0.0 0.0
                            CHANNELS 3 Zrotation Yrotation Xrotation
                          }
                        }
                      }
                    }
                  }
                }
              }
            }
          }
          JOINT RightShoulder
          {
            OFFSET 23.161716 5.296122 -1.380114
            CHANNELS 3 Zrotation Yrotation Xrotation
            JOINT RightArm
            {
              OFFSET -16.027195 -2e-06 1.1e-05
              CHANNELS 3 Zrotation Yrotation Xrotation
              JOINT RightForeArm
              {
                OFFSET -28.736639 4e-06 2e-06
                CHANNELS 3 Zrotation Yrotation Xrotation
                JOINT RightHand
                {
                  OFFSET -27.133619 6e-06 0.0
                  CHANNELS 3 Zrotation Yrotation Xrotation
                  JOINT RightHandThumb1
                  {
                    OFFSET -2.274328 -3.351035 -0.83067
                    CHANNELS 3 Zrotation Yrotation Xrotation
                    JOINT RightHandThumb2
                    {
                      OFFSET -4.703594 -3e-06 2e-06
                      CHANNELS 3 Zrotation Yrotation Xrotation
                      JOINT RightHandThumb3
                      {
                        OFFSET -2.794935 -4e-06 -3e-06
                        CHANNELS 3 Zrotation Yrotation Xrotation
                        JOINT RightHandThumbEnd
                        {
                          OFFSET -3.183852 4e-06 1e-06
                          CHANNELS 3 Zrotation Yrotation Xrotation
                        }
                      }
                    }
                  }
                  JOINT RightHandIndex1
                  {
                    OFFSET -3.253496 -2.33755 -0.127667
                    CHANNELS 3 Zrotation Yrotation Xrotation
                    JOINT RightHandIndex2
                    {
                      OFFSET -6.344434 0.0 0.0
                      CHANNELS 3 Zrotation Yrotation Xrotation
                      JOINT RightHandIndex3
                      {
                        OFFSET -3.654871 0.0 -8e-06
                        CHANNELS 3 Zrotation Yrotation Xrotation
                        JOINT RightHandIndex4
                        {
                          OFFSET -2.327586 -1e-06 0.0
                          CHANNELS 3 Zrotation Yrotation Xrotation
                          JOINT RightHandIndexEnd
                          {
                            OFFSET -2.770001 3e-06 8e-06
                            CHANNELS 3 Zrotation Yrotation Xrotation
                          }
                        }
                      }
                    }
                  }
                  JOINT RightHandMiddle1
                  {
                    OFFSET -3.168223 -0.944764 0.411762
                    CHANNELS 3 Zrotation Yrotation Xrotation
                    JOINT RightHandMiddle2
                    {
                      OFFSET -6.266691 -1e-06 -4e-06
                      CHANNELS 3 Zrotation Yrotation Xrotation
                      JOINT RightHandMiddle3
                      {
                        OFFSET -4.348901 0.0 0.0
                        CHANNELS 3 Zrotation Yrotation Xrotation
                        JOINT RightHandMiddle4
                        {
                          OFFSET -3.00024 2e-06 -4e-06
                          CHANNELS 3 Zrotation Yrotation Xrotation
                          JOINT RightHandMiddleEnd
                          {
                            OFFSET -2.321477 -4e-06 -4e-06
                            CHANNELS 3 Zrotation Yrotation Xrotation
                          }
                        }
                      }
                    }
                  }
                  JOINT RightHandRing1
                  {
                    OFFSET -2.885654 0.293261 -0.119232
                    CHANNELS 3 Zrotation Yrotation Xrotation
                    JOINT RightHandRing2
                    {
                      OFFSET -6.032835 -1e-06 -4e-06
                      CHANNELS 3 Zrotation Yrotation Xrotation
                      JOINT RightHandRing3
                      {
                        OFFSET -4.33881 0.0 -4e-06
                        CHANNELS 3 Zrotation Yrotation Xrotation
                        JOINT RightHandRing4
                        {
                          OFFSET -2.654903 -4e-06 -4e-06
                          CHANNELS 3 Zrotation Yrotation Xrotation
                          JOINT RightHandRingEnd
                          {
                            OFFSET -1.935122 0.0 4e-06
                            CHANNELS 3 Zrotation Yrotation Xrotation
                          }
                        }
                      }
                    }
                  }
                  JOINT RightHandPinky1
                  {
                    OFFSET -2.866241 1.503904 -0.60527
                    CHANNELS 3 Zrotation Yrotation Xrotation
                    JOINT RightHandPinky2
                    {
                      OFFSET -5.553177 -2e-06 0.0
                      CHANNELS 3 Zrotation Yrotation Xrotation
                      JOINT RightHandPinky3
                      {
                        OFFSET -3.062664 -1e-06 -4e-06
                        CHANNELS 3 Zrotation Yrotation Xrotation
                        JOINT RightHandPinky4
                        {
                          OFFSET -1.546529 2e-06 4e-06
                          CHANNELS 3 Zrotation Yrotation Xrotation
                          JOINT RightHandPinkyEnd
                          {
                            OFFSET -1.952341 0.0 -4e-06
                            CHANNELS 3 Zrotation Yrotation Xrotation
                          }
                        }
                      }
                    }
                  }
                }
              }
            }
          }
        }
      }
    }
    JOINT LeftLeg
    {
      OFFSET -8.443107 2.567604 10.043214
      CHANNELS 3 Zrotation Yrotation Xrotation
      JOINT LeftShin
      {
        OFFSET 43.229198 1e-06 -1e-06
        CHANNELS 3 Zrotation Yrotation Xrotation
        JOINT LeftFoot
        {
          OFFSET 42.298611 1e-06 1e-06
          CHANNELS 3 Zrotation Yrotation Xrotation
          JOINT LeftToeBase
          {
            OFFSET 14.165858 1e-06 0.0
            CHANNELS 3 Zrotation Yrotation Xrotation
            JOINT LeftToeEnd
            {
              OFFSET 6.7141 -0.234461 0.0
              CHANNELS 3 Zrotation Yrotation Xrotation
            }
          }
        }
      }
    }
    JOINT RightLeg
    {
      OFFSET -8.303923 2.592729 -10.047278
      CHANNELS 3 Zrotation Yrotation Xrotation
      JOINT RightShin
      {
        OFFSET -43.369682 0.0 1e-06
        CHANNELS 3 Zrotation Yrotation Xrotation
        JOINT RightFoot
        {
          OFFSET -42.260784 4e-06 2e-06
          CHANNELS 3 Zrotation Yrotation Xrotation
          JOINT RightToeBase
          {
            OFFSET -14.222245 -2e-06 -1e-06
            CHANNELS 3 Zrotation Yrotation Xrotation
            JOINT RightToeEnd
            {
              OFFSET -6.660062 0.232574 -2e-06
              CHANNELS 3 Zrotation Yrotation Xrotation
            }
          }
        }
      }
    }
  }
}
MOTION
Frames: 4
Frame Time: 0.03333333333333333
0.0 0.0 0.0 0.0 -0.0 0.0 4.339411 50.136101 216.356522 87.893898 -54.129124 99.709099 14.31512 -0.816134 1.215927 -5.912944 -0.326993 0.355739 18.6616 -2.621976 -2.254436 33.136292 3.822896 3.325322 -2.441184 -1.82652 4.675116 -17.440111 -2.326752 5.187653 6e-06 1e-06 1e-06 -0.247771 0.06579 0.094453 -0.113086 0.208469 0.05491 -0.21792 -0.07012 0.110385 63.028885 -81.232002 -55.471802 75.068886 -8.821094 -21.012159 12.600587 -0.33185 0.174613 1.376147 73.314857 -5.016984 17.636635 -26.322733 52.41119 -19.466656 -14.395597 29.410385 -2e-06 -8.774822 -2e-06 14.869136 -18.159908 6.254308 -0.609777 -1.795655 -3.889328 -4.807087 -11.046813 -2.93785 3e-06 -20.976017 -0.0 -5.019971 -25.03356 -4.031881 5e-06 -0.0 -4e-06 -10.634533 -5.686972 -3.565586 10.573274 -17.922947 -3.113899 2e-06 -13.821209 2e-06 -0.50178 -31.181505 -4.027017 -11.078535 -57.899624 6.887317 -13.982716 -7.150201 -2.875041 13.772732 -8.401489 -3.218242 0.347733 -34.211544 0.771653 -0.963029 -17.73337 2.62102 0.0 -0.0 -1e-06 -17.34642 -20.095217 -4.201781 21.757561 -1.638376 3.866428 1e-06 -6.338826 2e-06 -1.69759 -22.591747 -6.194009 -0.0 -4e-06 -2e-06 -153.822357 -79.241203 -20.163521 71.734123 0.873834 -46.721817 19.229824 -1.802066 -0.490525 3.550511 63.712887 14.769443 22.182125 -20.375898 49.933319 -16.701811 -16.743526 28.476528 -0.0 -12.690605 -2e-06 16.689539 -17.703983 2.376373 -0.105919 -1.513856 -4.275882 -5.039042 -5.612871 -2.953557 3e-06 -11.020527 -0.0 -6.1113 -15.895334 -3.840471 0.0 1e-06 0.0 -10.283374 -5.680288 -4.341839 11.028298 -11.302406 -2.372632 -1.384273 -14.238584 -6.32012 -0.62544 -26.924189 -3.827601 -4.03292 -50.352016 -3.698097 -13.708526 -7.363476 -3.72094 18.14115 -14.05274 -3.242672 5e-06 -18.787271 -1e-06 -0.429711 -8.456043 2.555503 1e-06 -0.0 1e-06 -15.923538 -20.094486 -5.473585 30.41921 -7.190826 1.735931 4e-06 -8.162922 -0.0 -1.861905 -22.861469 -6.16794 0.0 -3e-06 0.0 119.598511 -2.924033 8.648632 121.172691 -0.127088 0.171263 -61.382992 -9.703512 -0.100891 -6.112967 1.644947 2.538584 -0.999999 1e-06 -0.0 -43.723824 -0.295974 1.484347 89.997261 0.685925 -0.436986 -34.881817 20.939331 -1.368247 -3.976569 0.172625 1.717129 -1.000005 1e-06 1e-06 
0.0 0.0 0.0 0.0 -0.0 0.0 4.428711 49.984509 217.760468 89.247993 -53.876648 98.359314 14.463728 -1.098346 1.194679 -5.865933 -0.43512 0.508365 18.977699 -3.164946 -2.10997 33.197357 4.222261 3.41525 -2.445164 -1.86952 4.623969 -17.677856 -2.367011 5.280186 6e-06 -0.0 1e-06 -0.247935 0.044585 0.088725 -0.17099 0.185341 0.036298 -0.2779 -0.0921 0.118191 64.885681 -81.629753 -57.27766 75.268921 -9.382375 -20.609383 13.102492 -0.508357 0.144691 1.562372 74.232986 -3.933351 17.636631 -26.322725 52.411186 -19.466656 -14.395597 29.410381 -2e-06 -8.774819 -0.0 14.918281 -18.110195 6.332797 -0.609776 -1.795654 -3.889328 -4.807087 -11.046811 -2.93785 2e-06 -20.976019 1e-06 -5.019972 -25.03356 -4.031879 6e-06 -0.0 -0.0 -10.634534 -5.686968 -3.565588 10.573276 -17.922951 -3.113901 1e-06 -13.821212 3e-06 -0.501779 -31.181507 -4.027017 -11.206033 -58.193737 7.084738 -13.982714 -7.150197 -2.875041 13.772731 -8.401493 -3.218239 0.347729 -34.211555 0.771656 -0.963029 -17.733372 2.621021 -0.0 0.0 -0.0 -17.34642 -20.095217 -4.201782 21.757557 -1.638375 3.866429 2e-06 -6.338824 1e-06 -1.69759 -22.591747 -6.194008 -0.0 -4e-06 0.0 -154.176788 -78.423676 -19.690365 71.369499 1.650007 -45.499802 17.576527 -1.874297 -0.45028 -1.815106 63.100746 10.170103 22.182117 -20.375898 49.933319 -16.701817 -16.74353 28.476536 -1e-06 -12.690605 -1e-06 16.854725 -17.72617 2.30026 -0.10592 -1.513855 -4.275882 -5.039039 -5.612872 -2.953558 5e-06 -11.020525 -1e-06 -6.1113 -15.895334 -3.840469 0.0 -0.0 -1e-06 -10.283371 -5.680286 -4.341839 11.028295 -11.302407 -2.372633 -1.384269 -14.238581 -6.32012 -0.625438 -26.924191 -3.827601 -4.05519 -50.637733 -3.635656 -13.708524 -7.363476 -3.720938 18.14115 -14.052739 -3.242675 5e-06 -18.787273 -2e-06 -0.429713 -8.456044 2.555505 0.0 1e-06 -0.0 -15.923536 -20.094482 -5.473581 30.419218 -7.190826 1.735923 3e-06 -8.162929 -1e-06 -1.861904 -22.861479 -6.167941 0.0 -4e-06 -0.0 114.800934 -2.533677 8.067424 125.223 0.354978 0.353943 -61.135071 -9.745756 0.810609 -6.227808 1.650365 2.550596 -0.999999 1e-06 -0.0 -41.588013 -0.756076 2.116467 88.176598 0.673782 -0.498787 -34.830025 21.090582 -1.911907 -3.415263 0.155346 1.73287 -1.000003 0.0 0.0 
0.0 0.0 0.0 0.0 -0.0 0.0 4.613 49.743237 219.290619 90.362198 -53.49263 96.991402 14.598186 -1.397627 1.153828 -5.862989 -0.557744 0.675924 19.354124 -3.581554 -1.93171 33.357391 4.528885 3.546538 -2.466736 -1.941782 4.661616 -17.925863 -2.401215 5.375859 6e-06 0.0 1e-06 -0.249172 0.021544 0.085215 -0.200676 0.16547 0.035225 -0.31381 -0.118869 0.112613 66.717995 -82.038445 -59.014366 75.366982 -10.061103 -20.366652 13.61109 -0.638187 0.12401 2.528788 74.985001 -2.327427 17.636631 -26.322729 52.411186 -19.466658 -14.3956 29.410389 -3e-06 -8.774822 -0.0 14.943251 -18.033482 6.338735 -0.609775 -1.795654 -3.889329 -4.80709 -11.046813 -2.93785 4e-06 -20.976015 0.0 -5.01997 -25.03356 -4.031882 5e-06 -0.0 -1e-06 -10.634534 -5.68697 -3.565588 10.573272 -17.922951 -3.113903 2e-06 -13.82121 2e-06 -0.501777 -31.181505 -4.027017 -11.320786 -58.366779 7.210707 -13.982714 -7.150199 -2.875043 13.772731 -8.401491 -3.218241 0.347735 -34.211544 0.771653 -0.963028 -17.73337 2.621021 -0.0 -0.0 -0.0 -17.346418 -20.095221 -4.201782 21.757557 -1.638375 3.866429 1e-06 -6.338824 1e-06 -1.69759 -22.591747 -6.194008 1e-06 -4e-06 -3e-06 -155.033249 -77.972031 -18.627626 71.317665 1.803181 -44.507736 16.942116 -1.723693 -0.394422 -5.37584 62.979282 7.150158 22.18211 -20.375891 49.933319 -16.701817 -16.74353 28.476534 -1e-06 -12.690601 -1e-06 16.953537 -17.767151 2.293502 -0.10592 -1.513856 -4.275882 -5.039039 -5.612871 -2.953556 4e-06 -11.020523 -3e-06 -6.111297 -15.89533 -3.840473 -0.0 -0.0 1e-06 -10.283369 -5.680288 -4.34184 11.028294 -11.302406 -2.372632 -1.384269 -14.23858 -6.320123 -0.625438 -26.924187 -3.8276 -4.115016 -50.855591 -3.569397 -13.70852 -7.363476 -3.720941 18.14115 -14.052739 -3.242675 6e-06 -18.787271 -4e-06 -0.429711 -8.456043 2.555502 0.0 1e-06 -0.0 -15.923532 -20.094482 -5.473586 30.41921 -7.190826 1.735926 3e-06 -8.162927 -1e-06 -1.861902 -22.861469 -6.167942 -1e-06 -4e-06 0.0 110.609894 -2.230084 7.393486 127.762512 0.720542 0.478073 -60.153969 -8.891358 1.886525 -6.43984 1.625889 2.534242 -1.000001 -0.0 -0.0 -39.160618 -1.099237 2.622296 86.126205 0.523825 -0.542936 -34.74728 21.337185 -2.571611 -3.105141 0.16206 1.75627 -1.000003 -0.0 0.0 
0.0 0.0 0.0 0.0 -0.0 0.0 4.920149 49.305458 220.917969 91.071175 -52.749283 95.778076 14.821548 -1.60247 1.044799 -5.810778 -0.779164 0.965608 19.789091 -3.740892 -1.814089 33.60545 4.505109 3.75227 -2.534935 -1.972996 4.739178 -18.112141 -2.348817 5.415752 6e-06 -0.0 2e-06 -0.255641 -0.024227 0.080234 -0.259451 0.136356 0.03387 -0.398913 -0.178959 0.105173 67.447876 -82.519165 -59.67057 75.393051 -11.097793 -20.705873 14.102747 -0.634821 0.083804 5.883037 75.464294 1.321119 17.636625 -26.322721 52.41119 -19.466661 -14.395598 29.410393 -2e-06 -8.774821 -1e-06 15.032627 -18.064285 6.394234 -0.609777 -1.795655 -3.889326 -4.807088 -11.046807 -2.937851 7e-06 -20.976011 -2e-06 -5.019966 -25.033552 -4.031884 5e-06 -0.0 -0.0 -10.634533 -5.686971 -3.565587 10.573275 -17.922947 -3.113903 3e-06 -13.821205 0.0 -0.501772 -31.181498 -4.027019 -11.735096 -58.715546 7.861831 -13.982714 -7.150197 -2.875041 13.772731 -8.401489 -3.218241 0.347736 -34.211544 0.771652 -0.963026 -17.733368 2.621021 0.0 0.0 -0.0 -17.346416 -20.095213 -4.201783 21.757555 -1.638376 3.866427 -1e-06 -6.338823 1e-06 -1.697585 -22.59174 -6.194008 0.0 -5e-06 -2e-06 -155.600815 -77.508049 -17.966675 71.510651 1.47162 -43.742592 16.630936 -1.511688 -0.347623 -7.477644 63.337822 5.300055 22.18211 -20.375898 49.933323 -16.701813 -16.74353 28.476536 -3e-06 -12.690601 0.0 17.266102 -17.735979 2.201948 -0.105917 -1.513856 -4.275881 -5.039041 -5.612872 -2.953557 5e-06 -11.020523 -2e-06 -6.111295 -15.89533 -3.840472 -0.0 -1e-06 0.0 -10.283369 -5.680287 -4.341839 11.028293 -11.302404 -2.372632 -1.384268 -14.238583 -6.320118 -0.625437 -26.924187 -3.827603 -4.058878 -50.90229 -3.780553 -13.708524 -7.363477 -3.720938 18.141148 -14.052739 -3.242674 6e-06 -18.78727 -1e-06 -0.429712 -8.456044 2.555504 1e-06 2e-06 1e-06 -15.923532 -20.094482 -5.473586 30.41921 -7.190827 1.735925 3e-06 -8.162925 -0.0 -1.861902 -22.861469 -6.167941 1e-06 -2e-06 -2e-06 107.362373 -2.131989 6.697023 128.85289 0.93066 0.564094 -58.102146 -6.819147 2.498546 -6.340701 1.511767 2.525357 -1.0 0.0 0.0 -36.160656 -1.30445 3.085804 83.917343 0.439914 -0.506107 -34.708046 21.424133 -3.044124 -3.886509 0.231019 1.755517 -1.000003 0.0 0.0 
